<svg width="16" height="16" viewBox="0 0 16 16" fill="none" xmlns="http://www.w3.org/2000/svg">
<path d="M8 0C6.41775 0 4.87103 0.469191 3.55544 1.34824C2.23985 2.22729 1.21447 3.47672 0.608967 4.93853C0.00346623 6.40034 -0.15496 8.00887 0.153721 9.56072C0.462403 11.1126 1.22433 12.538 2.34315 13.6569C3.46197 14.7757 4.88743 15.5376 6.43928 15.8463C7.99113 16.155 9.59966 15.9965 11.0615 15.391C12.5233 14.7855 13.7727 13.7602 14.6518 12.4446C15.5308 11.129 16 9.58225 16 8C16 6.94942 15.7931 5.90914 15.391 4.93853C14.989 3.96793 14.3997 3.08601 13.6569 2.34315C12.914 1.60028 12.0321 1.011 11.0615 0.608964C10.0909 0.206926 9.05058 0 8 0ZM11.7111 8.92444H8.99556V11.6356C9.00432 11.7614 8.98709 11.8878 8.94494 12.0068C8.90279 12.1257 8.83661 12.2347 8.75053 12.327C8.66445 12.4193 8.5603 12.4929 8.44457 12.5432C8.32883 12.5935 8.20398 12.6195 8.07778 12.6195C7.95158 12.6195 7.82673 12.5935 7.71099 12.5432C7.59526 12.4929 7.49111 12.4193 7.40503 12.327C7.31895 12.2347 7.25277 12.1257 7.21062 12.0068C7.16846 11.8878 7.15124 11.7614 7.16 11.6356V8.92444H4.44889C4.323 8.93321 4.19664 8.91598 4.07769 8.87383C3.95874 8.83167 3.84973 8.7655 3.75745 8.67942C3.66516 8.59334 3.59158 8.48919 3.54126 8.37345C3.49095 8.25772 3.46499 8.13286 3.46499 8.00667C3.46499 7.88047 3.49095 7.75561 3.54126 7.63988C3.59158 7.52414 3.66516 7.41999 3.75745 7.33391C3.84973 7.24783 3.95874 7.18166 4.07769 7.1395C4.19664 7.09735 4.323 7.08012 4.44889 7.08889H7.18222V4.36889C7.1984 4.13651 7.30213 3.91893 7.47246 3.76004C7.6428 3.60115 7.86707 3.51279 8.1 3.51279C8.33294 3.51279 8.5572 3.60115 8.72754 3.76004C8.89787 3.91893 9.0016 4.13651 9.01778 4.36889V7.08444H11.7333C11.9657 7.10062 12.1833 7.20435 12.3422 7.37468C12.5011 7.54502 12.5894 7.76928 12.5894 8.00222C12.5894 8.23516 12.5011 8.45942 12.3422 8.62976C12.1833 8.80009 11.9657 8.90382 11.7333 8.92L11.7111 8.92444Z" fill="#1A1A1A"/>
</svg>
