<svg width="16" height="14" viewBox="0 0 16 14" fill="none" xmlns="http://www.w3.org/2000/svg">
<path d="M15.6 5.78125H14V4.15625C14 3.93281 13.82 3.75 13.6 3.75H12.8C12.58 3.75 12.4 3.93281 12.4 4.15625V5.78125H10.8C10.58 5.78125 10.4 5.96406 10.4 6.1875V7C10.4 7.22344 10.58 7.40625 10.8 7.40625H12.4V9.03125C12.4 9.25469 12.58 9.4375 12.8 9.4375H13.6C13.82 9.4375 14 9.25469 14 9.03125V7.40625H15.6C15.82 7.40625 16 7.22344 16 7V6.1875C16 5.96406 15.82 5.78125 15.6 5.78125ZM5.6 7C7.3675 7 8.8 5.54512 8.8 3.75C8.8 1.95488 7.3675 0.5 5.6 0.5C3.8325 0.5 2.4 1.95488 2.4 3.75C2.4 5.54512 3.8325 7 5.6 7ZM7.84 7.8125H7.4225C6.8675 8.07148 6.25 8.21875 5.6 8.21875C4.95 8.21875 4.335 8.07148 3.7775 7.8125H3.36C1.505 7.8125 0 9.34102 0 11.225V12.2812C0 12.9541 0.5375 13.5 1.2 13.5H10C10.6625 13.5 11.2 12.9541 11.2 12.2812V11.225C11.2 9.34102 9.695 7.8125 7.84 7.8125Z" fill="#CBB26A"/>
</svg>
