<svg width="16" height="12" viewBox="0 0 16 12" fill="none" xmlns="http://www.w3.org/2000/svg">
<path d="M4.79518 6.00429C5.35029 6.00599 5.89337 5.83116 6.35558 5.50193C6.8178 5.17271 7.17834 4.70393 7.3915 4.15501C7.60466 3.60609 7.66085 3.00172 7.55294 2.41856C7.44504 1.8354 7.1779 1.2997 6.78538 0.879318C6.39286 0.458942 5.89263 0.172836 5.34812 0.0572715C4.8036 -0.058293 4.2393 0.00187379 3.72675 0.230165C3.21421 0.458457 2.77649 0.844598 2.46908 1.33962C2.16167 1.83463 1.99841 2.41625 2 3.01075C2 3.80469 2.29449 4.56611 2.81869 5.12751C3.34289 5.68891 4.05385 6.00429 4.79518 6.00429ZM6.71486 6.8645H6.50602C5.97364 7.14466 5.38836 7.29033 4.79518 7.29033C4.202 7.29033 3.61672 7.14466 3.08434 6.8645H2.8755C2.11287 6.8645 1.38148 7.18898 0.842215 7.76651C0.302953 8.34405 0 9.12734 0 9.9441V10.7183C0 11.0582 0.126091 11.3842 0.350532 11.6246C0.574974 11.865 0.879381 12 1.19679 12H8.4257C8.74385 12 9.0491 11.8653 9.27481 11.6251C9.50053 11.385 9.6284 11.059 9.63052 10.7183V9.9441C9.63056 9.53604 9.55487 9.13204 9.40786 8.75557C9.26085 8.37911 9.04544 8.03769 8.77416 7.75116C8.50288 7.46462 8.18113 7.23867 7.82761 7.08646C7.47409 6.93425 7.09584 6.85881 6.71486 6.8645ZM12 6.00429C12.4766 6.00429 12.9425 5.85294 13.3387 5.56938C13.735 5.28581 14.0438 4.88278 14.2262 4.41123C14.4086 3.93967 14.4563 3.42078 14.3633 2.92018C14.2704 2.41958 14.0409 1.95976 13.7039 1.59885C13.3669 1.23794 12.9375 0.992151 12.4701 0.892576C12.0027 0.793001 11.5182 0.844104 11.0779 1.03943C10.6376 1.23475 10.2612 1.56554 9.99646 1.98992C9.73169 2.41431 9.59036 2.91323 9.59036 3.42364C9.59036 4.10807 9.84423 4.76448 10.2961 5.24845C10.748 5.73241 11.3609 6.00429 12 6.00429ZM13.1968 6.8645H13.1004C12.388 7.14862 11.6039 7.14862 10.8916 6.8645H10.7952C10.3058 6.86589 9.82574 7.00854 9.40562 7.27742C10.0391 8.00043 10.3947 8.95265 10.4016 9.9441V10.9764C10.4016 11.0366 10.4016 11.0882 10.4016 11.1484H14.7952C15.1147 11.1484 15.4212 11.0125 15.6471 10.7705C15.8731 10.5285 16 10.2003 16 9.85807C16 9.46422 15.9274 9.07426 15.7865 8.7105C15.6455 8.34674 15.4389 8.01636 15.1785 7.73827C14.9181 7.46018 14.609 7.23984 14.2689 7.0899C13.9289 6.93997 13.5645 6.86337 13.1968 6.8645Z" fill="#CBB26A"/>
</svg>
