<svg width="21" height="21" viewBox="0 0 21 21" fill="none" xmlns="http://www.w3.org/2000/svg">
<path d="M11.3911 10.51L15.7914 6.09978C15.8551 6.04241 15.9064 5.97263 15.9422 5.89471C15.9781 5.81679 15.9977 5.73236 15.9998 5.64658C16.002 5.56081 15.9866 5.4755 15.9547 5.39588C15.9229 5.31625 15.8751 5.24398 15.8144 5.18348C15.7537 5.12298 15.6813 5.07554 15.6017 5.04404C15.5221 5.01254 15.4369 4.99766 15.3513 5.0003C15.2657 5.00294 15.1816 5.02305 15.1041 5.05939C15.0265 5.09574 14.9572 5.14756 14.9003 5.21168L10.5 9.62188L6.09969 5.21168C6.04281 5.14756 5.97348 5.09574 5.89594 5.05939C5.81839 5.02305 5.73427 5.00294 5.6487 5.0003C5.56313 4.99766 5.47793 5.01254 5.3983 5.04404C5.31867 5.07554 5.24629 5.12298 5.18559 5.18348C5.12489 5.24398 5.07714 5.31625 5.04526 5.39588C5.01338 5.4755 4.99805 5.56081 5.0002 5.64658C5.00235 5.73236 5.02193 5.81679 5.05776 5.89471C5.09358 5.97263 5.14489 6.04241 5.20855 6.09978L9.60886 10.51L5.20855 14.9202C5.0926 15.0398 5.02774 15.2 5.02774 15.3667C5.02774 15.5335 5.0926 15.6937 5.20855 15.8133C5.32823 15.9312 5.48882 15.9981 5.65664 16C5.82315 15.999 5.98247 15.9318 6.09969 15.8133L10.5 11.4031L14.9003 15.8133C15.0175 15.9318 15.1768 15.999 15.3434 16C15.5112 15.9981 15.6718 15.9312 15.7914 15.8133C15.9074 15.6937 15.9723 15.5335 15.9723 15.3667C15.9723 15.2 15.9074 15.0398 15.7914 14.9202L11.3911 10.51Z" fill="#CBB26A"/>
</svg>
