<svg width="18" height="16" viewBox="0 0 18 16" fill="none" xmlns="http://www.w3.org/2000/svg">
<path d="M17.2446 13.3928C17.3377 13.5526 17.3981 13.7293 17.4225 13.9126C17.4469 14.096 17.4348 14.2823 17.3867 14.4609C17.3387 14.6395 17.2557 14.8068 17.1427 14.9532C17.0296 15.0995 16.8886 15.222 16.7279 15.3136C16.5147 15.4356 16.2736 15.5002 16.0279 15.5011H1.96961C1.78486 15.5011 1.60192 15.4647 1.43129 15.3938C1.26066 15.323 1.10568 15.2192 0.975235 15.0884C0.844792 14.9576 0.741448 14.8023 0.671128 14.6314C0.600807 14.4606 0.564893 14.2775 0.565441 14.0928C0.564426 13.8469 0.62916 13.6052 0.75294 13.3928L7.78211 1.20529C7.87408 1.04501 7.99679 0.904468 8.14319 0.79171C8.2896 0.678952 8.45682 0.596192 8.63527 0.548192C8.81372 0.500193 8.99988 0.487894 9.1831 0.511991C9.36631 0.536088 9.54297 0.596114 9.70294 0.688624C9.9167 0.81218 10.0936 0.990534 10.2154 1.20529L17.2446 13.3928ZM8.99877 10.8928C8.73141 10.892 8.46984 10.9705 8.24719 11.1186C8.02455 11.2666 7.85087 11.4774 7.74817 11.7242C7.64548 11.9711 7.6184 12.2429 7.67035 12.5051C7.72231 12.7674 7.85097 13.0083 8.04002 13.1974C8.22907 13.3864 8.47 13.5151 8.73226 13.567C8.99453 13.619 9.26631 13.5919 9.51316 13.4892C9.76001 13.3865 9.97081 13.2129 10.1188 12.9902C10.2669 12.7676 10.3454 12.506 10.3446 12.2386C10.3446 12.0619 10.3098 11.8869 10.2422 11.7236C10.1745 11.5603 10.0754 11.4119 9.95042 11.287C9.82545 11.162 9.67708 11.0629 9.5138 10.9952C9.35052 10.9276 9.17551 10.8928 8.99877 10.8928ZM7.71961 6.04695L7.93628 10.0345C7.94056 10.1244 7.97932 10.2092 8.0445 10.2712C8.10968 10.3333 8.19627 10.3679 8.28627 10.3678H9.71127C9.80128 10.3679 9.88787 10.3333 9.95305 10.2712C10.0182 10.2092 10.057 10.1244 10.0613 10.0345L10.2779 6.05112C10.2808 6.00481 10.2743 5.9584 10.259 5.91459C10.2437 5.87079 10.2199 5.83045 10.1889 5.79594C10.1579 5.76144 10.1203 5.73344 10.0784 5.71359C10.0364 5.69373 9.99096 5.68241 9.94461 5.68028H8.06961C7.97678 5.68028 7.88776 5.71716 7.82212 5.7828C7.75648 5.84843 7.71961 5.93746 7.71961 6.03028V6.05112V6.04695Z" fill="#EA4335"/>
</svg>
