<svg width="20" height="21" viewBox="0 0 20 21" fill="none" xmlns="http://www.w3.org/2000/svg">
<path d="M4 17C4 17.3978 4.15803 17.7794 4.43934 18.0607C4.72064 18.342 5.10217 18.5 5.5 18.5H14.5C14.8978 18.5 15.2794 18.342 15.5607 18.0607C15.842 17.7794 16 17.3978 16 17V6.5H4V17ZM12.5 9C12.5 8.86739 12.5527 8.74022 12.6464 8.64645C12.7402 8.55268 12.8674 8.5 13 8.5C13.1326 8.5 13.2598 8.55268 13.3535 8.64645C13.4473 8.74022 13.5 8.86739 13.5 9V16C13.5 16.1326 13.4473 16.2598 13.3535 16.3536C13.2598 16.4473 13.1326 16.5 13 16.5C12.8674 16.5 12.7402 16.4473 12.6464 16.3536C12.5527 16.2598 12.5 16.1326 12.5 16V9ZM9.5 9C9.5 8.86739 9.55268 8.74022 9.64644 8.64645C9.74021 8.55268 9.86739 8.5 10 8.5C10.1326 8.5 10.2598 8.55268 10.3536 8.64645C10.4473 8.74022 10.5 8.86739 10.5 9V16C10.5 16.1326 10.4473 16.2598 10.3536 16.3536C10.2598 16.4473 10.1326 16.5 10 16.5C9.86739 16.5 9.74021 16.4473 9.64644 16.3536C9.55268 16.2598 9.5 16.1326 9.5 16V9ZM6.5 9C6.5 8.86739 6.55268 8.74022 6.64645 8.64645C6.74021 8.55268 6.86739 8.5 7 8.5C7.13261 8.5 7.25978 8.55268 7.35355 8.64645C7.44732 8.74022 7.5 8.86739 7.5 9V16C7.5 16.1326 7.44732 16.2598 7.35355 16.3536C7.25978 16.4473 7.13261 16.5 7 16.5C6.86739 16.5 6.74021 16.4473 6.64645 16.3536C6.55268 16.2598 6.5 16.1326 6.5 16V9ZM16.5 3.50001H12.75L12.4562 2.91563C12.394 2.7907 12.2982 2.68561 12.1795 2.61218C12.0608 2.53875 11.9239 2.49991 11.7844 2.50001H8.2125C8.07324 2.49947 7.93665 2.53817 7.81837 2.61168C7.7001 2.68519 7.60492 2.79053 7.54375 2.91563L7.25 3.50001H3.5C3.36739 3.50001 3.24021 3.55268 3.14645 3.64645C3.05268 3.74022 3 3.8674 3 4V5C3 5.13261 3.05268 5.25979 3.14645 5.35356C3.24021 5.44733 3.36739 5.5 3.5 5.5H16.5C16.6326 5.5 16.7598 5.44733 16.8535 5.35356C16.9473 5.25979 17 5.13261 17 5V4C17 3.8674 16.9473 3.74022 16.8535 3.64645C16.7598 3.55268 16.6326 3.50001 16.5 3.50001Z" fill="#CBB26A"/>
</svg>
