<svg width="16" height="16" viewBox="0 0 16 16" fill="none" xmlns="http://www.w3.org/2000/svg">
<path d="M15.5 8C15.5 9.48336 15.0601 10.9334 14.236 12.1668C13.4119 13.4001 12.2406 14.3614 10.8701 14.9291C9.49968 15.4967 7.99168 15.6453 6.53682 15.3559C5.08196 15.0665 3.74559 14.3522 2.6967 13.3033C1.64781 12.2544 0.933502 10.918 0.644113 9.46317C0.354724 8.00832 0.503251 6.50032 1.07091 5.12987C1.63856 3.75943 2.59986 2.58808 3.83322 1.76397C5.06659 0.939864 6.51664 0.5 8 0.5C9.98912 0.5 11.8968 1.29018 13.3033 2.69671C14.7098 4.10323 15.5 6.01087 15.5 8ZM7.12917 11.9708L12.6958 6.40833C12.7864 6.31769 12.8373 6.19481 12.8373 6.06667C12.8373 5.93853 12.7864 5.81564 12.6958 5.725L12.0125 5.04583C11.9206 4.956 11.7972 4.90569 11.6687 4.90569C11.5403 4.90569 11.4169 4.956 11.325 5.04583L6.7875 9.58334L4.67084 7.46666C4.57897 7.37683 4.45557 7.32653 4.32708 7.32653C4.19859 7.32653 4.0752 7.37683 3.98333 7.46666L3.3 8.15C3.20942 8.24064 3.15854 8.36352 3.15854 8.49166C3.15854 8.6198 3.20942 8.7427 3.3 8.83333L6.44583 11.9792C6.49043 12.0245 6.54361 12.0605 6.60227 12.0851C6.66093 12.1097 6.72389 12.1224 6.7875 12.1224C6.8511 12.1224 6.91407 12.1097 6.97273 12.0851C7.03139 12.0605 7.08457 12.0245 7.12917 11.9792V11.9708Z" fill="#34A853"/>
</svg>
