<svg width="16" height="16" viewBox="0 0 16 16" fill="none" xmlns="http://www.w3.org/2000/svg">
<path d="M6.10951 15.2203V10.7455C6.10951 10.6713 6.13898 10.6002 6.19143 10.5477C6.24388 10.4953 6.31501 10.4658 6.38919 10.4658H9.61108C9.68525 10.4658 9.75639 10.4953 9.80884 10.5477C9.86129 10.6002 9.89076 10.6713 9.89076 10.7455V15.2203C9.89076 15.2945 9.92022 15.3656 9.97267 15.4181C10.0251 15.4705 10.0963 15.5 10.1704 15.5H13.4483C13.5224 15.5 13.5936 15.4705 13.646 15.4181C13.6985 15.3656 13.7279 15.2945 13.7279 15.2203V8.22837C13.7279 8.1542 13.7574 8.08306 13.8099 8.03061C13.8623 7.97816 13.9334 7.94869 14.0076 7.94869H15.4675C15.5242 7.94911 15.5796 7.93233 15.6265 7.90057C15.6734 7.86881 15.7095 7.82357 15.7301 7.77083C15.7507 7.71808 15.7548 7.66032 15.7419 7.60519C15.729 7.55005 15.6996 7.50014 15.6577 7.46205L8.19032 0.570789C8.13748 0.525127 8.06997 0.5 8.00013 0.5C7.9303 0.5 7.86279 0.525127 7.80995 0.570789L0.34255 7.46205C0.300643 7.50014 0.271285 7.55005 0.258359 7.60519C0.245434 7.66032 0.24955 7.71808 0.270162 7.77083C0.290775 7.82357 0.326914 7.86881 0.373798 7.90057C0.420682 7.93233 0.476103 7.94911 0.532731 7.94869H1.99265C2.06683 7.94869 2.13796 7.97816 2.19041 8.03061C2.24286 8.08306 2.27233 8.1542 2.27233 8.22837V15.2203C2.27233 15.2945 2.30179 15.3656 2.35424 15.4181C2.40669 15.4705 2.47783 15.5 2.55201 15.5H5.82983C5.90401 15.5 5.97514 15.4705 6.02759 15.4181C6.08004 15.3656 6.10951 15.2945 6.10951 15.2203Z" fill="#999999"/>
</svg>
