<svg width="14" height="18" viewBox="0 0 14 18" fill="none" xmlns="http://www.w3.org/2000/svg">
<path d="M7.00019 0.0100021C6.17352 0.00934527 5.35482 0.17152 4.59082 0.487267C3.82682 0.803013 3.1325 1.26615 2.54749 1.85023C1.96248 2.43431 1.49824 3.12789 1.18128 3.89139C0.864322 4.65488 0.700852 5.47333 0.700195 6.3C0.700195 11.025 7.00019 18 7.00019 18C7.00019 18 13.3002 11 13.3002 6.3C13.3008 5.47333 13.1387 4.65462 12.8229 3.89062C12.5072 3.12663 12.044 2.43231 11.46 1.8473C10.8759 1.26229 10.1823 0.798054 9.41881 0.481094C8.65531 0.164134 7.83686 0.000656349 7.01019 0L7.00019 0.0100021ZM7.00019 8.56C6.55518 8.56 6.12017 8.42804 5.75016 8.18081C5.38015 7.93358 5.09176 7.58217 4.92146 7.17104C4.75117 6.7599 4.70661 6.30751 4.79343 5.87105C4.88024 5.43459 5.09453 5.03368 5.4092 4.71901C5.72387 4.40434 6.12478 4.19005 6.56124 4.10323C6.9977 4.01642 7.45009 4.06097 7.86123 4.23127C8.27236 4.40157 8.62377 4.68996 8.871 5.05997C9.11823 5.42998 9.25019 5.86499 9.25019 6.31C9.25019 6.90673 9.01314 7.47904 8.59119 7.90099C8.16923 8.32295 7.59693 8.56 7.00019 8.56Z" fill="#CBB26A"/>
</svg>
