<svg width="16" height="16" viewBox="0 0 16 16" fill="none" xmlns="http://www.w3.org/2000/svg">
<path d="M5.60006 1.82209L8 5.26669L10.425 1.77207C10.825 1.19806 9.75002 0.873548 9.27503 1.77219C8.75009 2.77059 7.35008 2.79563 6.7501 1.84712C6.12502 0.823678 5.22498 1.29793 5.60009 1.82206L5.60006 1.82209Z" fill="#999999"/>
<path d="M13.675 13.6538C14.1 13.2294 14.1 12.5555 13.675 12.1561C13.2499 11.7317 12.575 11.7317 12.175 12.1561C11.7499 12.5805 11.7499 13.2543 12.175 13.6538C12.575 14.0531 13.2501 14.0531 13.675 13.6538Z" fill="#999999"/>
<path d="M10.675 1.94688L9.925 6.09046L14.1251 5.34168C14.8251 5.21688 14.3251 4.21836 13.3251 4.51796C12.2501 4.84248 11.2251 3.86893 11.5002 2.77065C11.75 1.64746 10.8 1.298 10.675 1.94694L10.675 1.94688Z" fill="#999999"/>
<path d="M14.2498 9.28542C13.2499 8.7613 13.2248 7.33839 14.1748 6.76441C15.1747 6.16536 14.6997 5.24177 14.1748 5.61618L10.7248 8.0124L14.2249 10.4337C14.8248 10.833 15.1499 9.7597 14.2498 9.28545L14.2498 9.28542Z" fill="#999999"/>
<path d="M8.02494 10.7331L5.5999 14.2277C5.19996 14.8268 6.24994 15.1513 6.74991 14.2527C7.27485 13.2543 8.69997 13.2292 9.27484 14.1777C9.87482 15.1761 10.7998 14.7018 10.4249 14.1777L8.02494 10.7331Z" fill="#999999"/>
<path d="M14.0748 10.6834L9.92479 9.93459L10.6747 14.1282C10.7997 14.8271 11.7998 14.3279 11.4997 13.3294C11.1747 12.2561 12.1498 11.2327 13.2498 11.5073C14.3996 11.7817 14.6997 10.7833 14.0747 10.6835L14.0748 10.6834Z" fill="#999999"/>
<path d="M9.07476 14.9267C9.07476 14.3277 8.59977 13.8534 7.99979 13.8534C7.39982 13.8534 6.92483 14.3277 6.92483 14.9267C6.92483 15.5257 7.39982 16 7.99979 16C8.59977 16 9.07476 15.5257 9.07476 14.9267Z" fill="#999999"/>
<path d="M16 7.98748C16 8.5802 15.5187 9.06078 14.925 9.06078C14.3313 9.06078 13.8501 8.5802 13.8501 7.98748C13.8501 7.39464 14.3313 6.91418 14.925 6.91418C15.5187 6.91418 16 7.39464 16 7.98748Z" fill="#999999"/>
<path d="M3.8499 13.6788C4.27495 13.2544 4.27495 12.5805 3.8499 12.1811C3.42485 11.7567 2.74995 11.7567 2.34989 12.1811C1.92484 12.6055 1.92484 13.2793 2.34989 13.6788C2.77494 14.0782 3.44984 14.0782 3.8499 13.6788Z" fill="#999999"/>
<path d="M3.8499 3.8689C4.27495 3.44451 4.27495 2.77066 3.8499 2.37121C3.42485 1.94682 2.74995 1.94682 2.34989 2.37121C1.92484 2.7956 1.92484 3.46946 2.34989 3.8689C2.74983 4.29318 3.42485 4.29318 3.8499 3.8689Z" fill="#999999"/>
<path d="M1.07497 9.08567C1.67494 9.08567 2.14993 8.61141 2.14993 8.01237C2.14993 7.41332 1.67494 6.93907 1.07497 6.93907C0.499946 6.93907 0 7.41332 0 8.01237C0 8.61141 0.47499 9.08567 1.07497 9.08567Z" fill="#999999"/>
<path d="M1.82513 9.26071C0.825174 9.85975 1.30019 10.7833 1.82513 10.4089L5.27507 8.01272L1.77504 5.59144C1.17506 5.192 0.850012 6.2653 1.75006 6.73955C2.75001 7.28873 2.77509 8.68658 1.8251 9.26068L1.82513 9.26071Z" fill="#999999"/>
<path d="M2.67488 11.5321C3.74984 11.2076 4.77487 12.1811 4.49982 13.2794C4.22486 14.4276 5.19983 14.7271 5.29983 14.1031L6.04978 9.95955L1.84968 10.7083C1.17477 10.8331 1.69983 11.8315 2.67479 11.532L2.67488 11.5321Z" fill="#999999"/>
<path d="M1.92501 5.34159L6.07503 6.09037L5.32508 1.89678C5.20008 1.19786 4.20002 1.69706 4.50008 2.69555C4.8251 3.76885 3.85005 4.79229 2.75006 4.51767C1.60017 4.24325 1.30011 5.24162 1.92507 5.3415L1.92501 5.34159Z" fill="#999999"/>
<path d="M13.6499 3.8689C14.075 3.44451 14.075 2.77066 13.6499 2.37121C13.2249 1.94682 12.55 1.94682 12.1499 2.37121C11.7249 2.7956 11.7249 3.46946 12.1499 3.8689C12.55 4.26823 13.2249 4.26823 13.6499 3.8689Z" fill="#999999"/>
<path d="M7.97487 2.1466C8.57485 2.1466 9.04984 1.67235 9.04984 1.0733C9.04984 0.474254 8.57485 0 7.97487 0C7.37489 0 6.8999 0.474254 6.8999 1.0733C6.92488 1.67235 7.39988 2.1466 7.97487 2.1466Z" fill="#999999"/>
</svg>
