<svg width="60" height="60" viewBox="0 0 60 60" fill="none" xmlns="http://www.w3.org/2000/svg">
<rect width="60" height="60" rx="30" fill="url(#paint0_linear_14164_78046)"/>
<path d="M31.7823 30.0199L40.5829 21.1996C40.7102 21.0848 40.8128 20.9453 40.8845 20.7894C40.9561 20.6336 40.9953 20.4647 40.9996 20.2932C41.0039 20.1216 40.9732 19.951 40.9095 19.7918C40.8457 19.6325 40.7502 19.488 40.6288 19.367C40.5074 19.246 40.3627 19.1511 40.2034 19.0881C40.0441 19.0251 39.8737 18.9953 39.7026 19.0006C39.5315 19.0059 39.3632 19.0461 39.2081 19.1188C39.053 19.1915 38.9144 19.2951 38.8006 19.4234L30 28.2437L21.1994 19.4234C21.0856 19.2951 20.947 19.1915 20.7919 19.1188C20.6368 19.0461 20.4685 19.0059 20.2974 19.0006C20.1263 18.9953 19.9559 19.0251 19.7966 19.0881C19.6373 19.1511 19.4926 19.246 19.3712 19.367C19.2498 19.488 19.1543 19.6325 19.0905 19.7918C19.0268 19.951 18.9961 20.1216 19.0004 20.2932C19.0047 20.4647 19.0439 20.6336 19.1155 20.7894C19.1872 20.9453 19.2898 21.0848 19.4171 21.1996L28.2177 30.0199L19.4171 38.8403C19.1852 39.0795 19.0555 39.3999 19.0555 39.7335C19.0555 40.067 19.1852 40.3874 19.4171 40.6266C19.6565 40.8624 19.9776 40.9963 20.3133 41C20.6463 40.9979 20.9649 40.8636 21.1994 40.6266L30 31.8062L38.8006 40.6266C39.0351 40.8636 39.3537 40.9979 39.6867 41C40.0224 40.9963 40.3435 40.8624 40.5829 40.6266C40.8148 40.3874 40.9445 40.067 40.9445 39.7335C40.9445 39.3999 40.8148 39.0795 40.5829 38.8403L31.7823 30.0199Z" fill="#1A1A1A"/>
<defs>
<linearGradient id="paint0_linear_14164_78046" x1="-2.5" y1="30" x2="63.3388" y2="33.2573" gradientUnits="userSpaceOnUse">
<stop stop-color="#CBB26A"/>
<stop offset="0.526042" stop-color="#FBF4A1"/>
<stop offset="0.983871" stop-color="#CBB26A"/>
</linearGradient>
</defs>
</svg>
