<svg width="30" height="30" viewBox="0 0 30 30" fill="none" xmlns="http://www.w3.org/2000/svg">
<rect width="30" height="30" rx="10" fill="url(#paint0_linear_10991_62672)"/>
<g clip-path="url(#clip0_10991_62672)">
<path d="M22.5755 14.9995C22.582 15.4825 22.458 15.9583 22.2165 16.3766C21.9749 16.7949 21.6249 17.1403 21.2034 17.3762L12.1166 22.6224C11.7016 22.8696 11.2276 23 10.7445 23C10.2615 23 9.78743 22.8696 9.37241 22.6224C8.9508 22.3865 8.60087 22.0411 8.35928 21.6228C8.1178 21.2045 7.99376 20.7287 8.00024 20.2457V9.75333C7.99386 9.27048 8.11802 8.79493 8.35951 8.37673C8.60099 7.95864 8.95103 7.61341 9.37241 7.37763C9.78743 7.13045 10.2615 7 10.7445 7C11.2276 7 11.7016 7.13043 12.1166 7.37763L21.2034 12.623C21.6249 12.8588 21.9749 13.2042 22.2165 13.6225C22.458 14.0408 22.582 14.5166 22.5755 14.9996V14.9995Z" fill="#1A1A1A"/>
</g>
<defs>
<linearGradient id="paint0_linear_10991_62672" x1="-1.25" y1="15" x2="31.6694" y2="16.6287" gradientUnits="userSpaceOnUse">
<stop stop-color="#CBB26A"/>
<stop offset="0.526042" stop-color="#FBF4A1"/>
<stop offset="0.983871" stop-color="#CBB26A"/>
</linearGradient>
<clipPath id="clip0_10991_62672">
<rect width="20" height="20" fill="white" transform="translate(5 5)"/>
</clipPath>
</defs>
</svg>