<svg width="15" height="14" viewBox="0 0 15 14" fill="none" xmlns="http://www.w3.org/2000/svg">
<path d="M13.6205 6.07295L12.7305 5.18295C12.4852 4.93769 12.3426 4.60098 12.3426 4.25311V2.98656C12.3426 2.25639 11.7493 1.66869 11.0248 1.66869H9.76394C9.4159 1.66869 9.07934 1.5318 8.8341 1.28082L7.93266 0.385082C7.41921 -0.128361 6.58053 -0.128361 6.06708 0.385082L5.17721 1.28082C4.93195 1.52608 4.59525 1.66869 4.24738 1.66869H2.98656C2.25639 1.66869 1.66869 2.26197 1.66869 2.98656V4.24738C1.66869 4.59541 1.5318 4.93197 1.28082 5.17721L0.385082 6.07295C-0.128361 6.58639 -0.128361 7.42508 0.385082 7.93852L1.27508 8.82852C1.52034 9.07378 1.66295 9.41049 1.66295 9.75836V11.0192C1.66295 11.7493 2.25623 12.337 2.98082 12.337H4.24164C4.58967 12.337 4.92623 12.4739 5.17148 12.7249L6.06148 13.6149C6.57492 14.1284 7.41361 14.1284 7.92705 13.6149L8.81705 12.7249C9.06231 12.4797 9.39902 12.337 9.74689 12.337H11.0077C11.7379 12.337 12.3256 11.7438 12.3256 11.0192V9.75836C12.3256 9.41033 12.4625 9.07377 12.7134 8.82852L13.6034 7.93852C14.1339 7.41921 14.1339 6.58639 13.6205 6.07295H13.6205ZM10.808 5.49098L6.88859 9.41043C6.80302 9.496 6.68892 9.54159 6.57482 9.54159C6.46072 9.54159 6.34662 9.496 6.26105 9.41043L4.18449 7.33387C4.00761 7.15699 4.00761 6.87747 4.18449 6.70059C4.36137 6.52371 4.64089 6.52371 4.81777 6.70059L6.58056 8.46338L10.1861 4.85787C10.3629 4.68099 10.6425 4.68099 10.8193 4.85787C10.9846 5.02902 10.9846 5.31426 10.8079 5.49115L10.808 5.49098Z" fill="#34A853"/>
</svg>
