<svg width="16" height="16" viewBox="0 0 16 16" fill="none" xmlns="http://www.w3.org/2000/svg">
<path d="M14.4141 8L15.3828 9.21094C15.4766 9.33073 15.5495 9.46094 15.6016 9.60156C15.6536 9.74219 15.6797 9.89062 15.6797 10.0469C15.6797 10.2031 15.6562 10.3516 15.6094 10.4922C15.5625 10.6328 15.4948 10.7604 15.4062 10.875C15.3177 10.9896 15.2109 11.0885 15.0859 11.1719C14.9609 11.2552 14.8255 11.3177 14.6797 11.3594L13.1875 11.7734C13.1979 12.0391 13.2109 12.3073 13.2266 12.5781C13.2422 12.849 13.2526 13.1198 13.2578 13.3906C13.2578 13.5781 13.224 13.7526 13.1562 13.9141C13.0885 14.0755 12.9922 14.2161 12.8672 14.3359C12.7422 14.4557 12.599 14.5521 12.4375 14.625C12.276 14.6979 12.099 14.7344 11.9062 14.7344C11.7448 14.7344 11.5859 14.7057 11.4297 14.6484L9.98438 14.1016L9.13281 15.3906C9.00781 15.5833 8.84635 15.7318 8.64844 15.8359C8.45052 15.9401 8.23438 15.9948 8 16C7.77083 16 7.55729 15.9479 7.35938 15.8438C7.16146 15.7396 6.9974 15.5885 6.86719 15.3906L6.01562 14.1016L4.57031 14.6484C4.41406 14.7057 4.25521 14.7344 4.09375 14.7344C3.90625 14.7344 3.73177 14.7005 3.57031 14.6328C3.40885 14.5651 3.26562 14.4688 3.14062 14.3438C3.01562 14.2188 2.91927 14.0755 2.85156 13.9141C2.78385 13.7526 2.7474 13.5781 2.74219 13.3906C2.74219 13.1198 2.75 12.849 2.76562 12.5781C2.78125 12.3073 2.79688 12.0391 2.8125 11.7734L1.32031 11.3594C1.16927 11.3177 1.03385 11.2552 0.914062 11.1719C0.794271 11.0885 0.690104 10.9896 0.601562 10.875C0.513021 10.7604 0.445312 10.6328 0.398438 10.4922C0.351562 10.3516 0.325521 10.2031 0.320312 10.0469C0.320312 9.89583 0.346354 9.75 0.398438 9.60938C0.450521 9.46875 0.523438 9.33594 0.617188 9.21094L1.58594 8L0.617188 6.78906C0.419271 6.54427 0.320312 6.26562 0.320312 5.95312C0.320312 5.79688 0.34375 5.64844 0.390625 5.50781C0.4375 5.36719 0.505208 5.23958 0.59375 5.125C0.682292 5.01042 0.786458 4.91146 0.90625 4.82812C1.02604 4.74479 1.16406 4.68229 1.32031 4.64062L2.8125 4.22656C2.80208 3.96094 2.78906 3.69271 2.77344 3.42188C2.75781 3.15104 2.7474 2.88021 2.74219 2.60938C2.74219 2.42188 2.77604 2.2474 2.84375 2.08594C2.91146 1.92448 3.00781 1.78385 3.13281 1.66406C3.25781 1.54427 3.40104 1.44792 3.5625 1.375C3.72396 1.30208 3.90104 1.26562 4.09375 1.26562C4.25521 1.26562 4.41406 1.29427 4.57031 1.35156L6.01562 1.89844L6.86719 0.609375C6.99219 0.416667 7.15365 0.268229 7.35156 0.164062C7.54948 0.0598958 7.76562 0.00520833 8 0C8.22917 0 8.44271 0.0520833 8.64062 0.15625C8.83854 0.260417 9.0026 0.411458 9.13281 0.609375L9.98438 1.89844L11.4297 1.35156C11.5859 1.29427 11.7448 1.26562 11.9062 1.26562C12.0938 1.26562 12.2682 1.29948 12.4297 1.36719C12.5911 1.4349 12.7344 1.53125 12.8594 1.65625C12.9844 1.78125 13.0807 1.92448 13.1484 2.08594C13.2161 2.2474 13.2526 2.42188 13.2578 2.60938C13.2578 2.88021 13.25 3.15104 13.2344 3.42188C13.2188 3.69271 13.2031 3.96094 13.1875 4.22656L14.6797 4.64062C14.8255 4.68229 14.9609 4.74479 15.0859 4.82812C15.2109 4.91146 15.3151 5.01042 15.3984 5.125C15.4818 5.23958 15.5495 5.36719 15.6016 5.50781C15.6536 5.64844 15.6797 5.79688 15.6797 5.95312C15.6797 6.26562 15.5807 6.54427 15.3828 6.78906L14.4141 8ZM7 10.8828L11.4453 6.44531L10.5547 5.55469L7 9.11719L5.44531 7.55469L4.55469 8.44531L7 10.8828Z" fill="#CBB26A"/>
</svg>
