<svg width="16" height="16" viewBox="0 0 16 16" fill="none" xmlns="http://www.w3.org/2000/svg">
<path d="M8.13549 0.525095C6.19019 0.517343 4.32143 1.28239 2.94004 2.65207C1.55865 4.02174 0.777698 5.88392 0.768876 7.82921C0.773271 9.1523 1.13923 10.449 1.8272 11.5792L0.498047 15.5L4.57718 14.2042C5.55442 14.7557 6.64529 15.0753 7.76563 15.1383C8.88596 15.2014 10.0058 15.0062 11.0388 14.5679C12.0717 14.1295 12.9901 13.4597 13.7232 12.6101C14.4562 11.7605 14.9843 10.7539 15.2666 9.66787C15.5489 8.58186 15.5779 7.4455 15.3514 6.34648C15.125 5.24747 14.649 4.21518 13.9603 3.32927C13.2716 2.44337 12.3886 1.72753 11.3794 1.23699C10.3702 0.746454 9.26176 0.494339 8.13966 0.500096L8.13549 0.525095ZM11.798 10.6084C11.6505 10.8303 11.4583 11.019 11.2337 11.1625C11.0092 11.306 10.7572 11.4011 10.4938 11.4417C10.148 11.4417 10.1396 11.7084 8.25633 10.8917C6.37301 10.075 5.23968 8.08337 5.15218 7.97504C4.73232 7.4051 4.49024 6.72381 4.45635 6.01672C4.46187 5.72522 4.5285 5.43813 4.65195 5.17401C4.7754 4.90988 4.95292 4.67461 5.17302 4.4834C5.30764 4.34805 5.49044 4.27163 5.68134 4.2709H6.03551C6.14384 4.2709 6.31051 4.2459 6.45217 4.62507C6.59384 5.00423 6.9355 5.93756 6.97717 6.03339C7.0049 6.08306 7.01946 6.139 7.01946 6.19589C7.01946 6.25278 7.0049 6.30872 6.97717 6.35839C6.92733 6.46989 6.85979 6.5726 6.77717 6.66255C6.68134 6.77089 6.57301 6.90005 6.48551 6.97922C6.39801 7.05838 6.28551 7.16672 6.38968 7.35838C6.65412 7.8482 6.98971 8.29612 7.3855 8.68754C7.81857 9.09568 8.31718 9.42809 8.86049 9.67087C9.04799 9.77087 9.15632 9.75837 9.27715 9.63753C9.39799 9.5167 9.76465 9.11254 9.89799 8.92921C10.0313 8.74587 10.1563 8.78337 10.3146 8.85004C10.473 8.91671 11.3896 9.40421 11.5646 9.5042C11.7396 9.6042 11.873 9.65837 11.9146 9.73754C11.9563 10.0399 11.9054 10.3479 11.7688 10.6209L11.798 10.6084Z" fill="#CBB26A"/>
</svg>
