<svg width="17" height="16" viewBox="0 0 17 16" fill="none" xmlns="http://www.w3.org/2000/svg">
<path d="M8.63549 0.525095C6.69019 0.517343 4.82143 1.28239 3.44004 2.65207C2.05865 4.02174 1.2777 5.88392 1.26888 7.82921C1.27327 9.1523 1.63923 10.449 2.3272 11.5792L0.998047 15.5L5.07718 14.2042C6.05442 14.7557 7.14529 15.0753 8.26563 15.1383C9.38596 15.2014 10.5058 15.0062 11.5388 14.5679C12.5717 14.1295 13.4901 13.4597 14.2232 12.6101C14.9562 11.7605 15.4843 10.7539 15.7666 9.66787C16.0489 8.58186 16.0779 7.4455 15.8514 6.34648C15.625 5.24747 15.149 4.21518 14.4603 3.32927C13.7716 2.44337 12.8886 1.72753 11.8794 1.23699C10.8702 0.746454 9.76176 0.494339 8.63966 0.500096L8.63549 0.525095ZM12.298 10.6084C12.1505 10.8303 11.9583 11.019 11.7337 11.1625C11.5092 11.306 11.2572 11.4011 10.9938 11.4417C10.648 11.4417 10.6396 11.7084 8.75633 10.8917C6.87301 10.075 5.73968 8.08337 5.65218 7.97504C5.23232 7.4051 4.99024 6.72381 4.95635 6.01672C4.96187 5.72522 5.0285 5.43813 5.15195 5.17401C5.2754 4.90988 5.45292 4.67461 5.67302 4.4834C5.80764 4.34805 5.99044 4.27163 6.18134 4.2709H6.53551C6.64384 4.2709 6.81051 4.2459 6.95217 4.62507C7.09384 5.00423 7.4355 5.93756 7.47717 6.03339C7.5049 6.08306 7.51946 6.139 7.51946 6.19589C7.51946 6.25278 7.5049 6.30872 7.47717 6.35839C7.42733 6.46989 7.35979 6.5726 7.27717 6.66255C7.18134 6.77089 7.07301 6.90005 6.98551 6.97922C6.89801 7.05838 6.78551 7.16672 6.88968 7.35838C7.15412 7.8482 7.48971 8.29612 7.8855 8.68754C8.31857 9.09568 8.81718 9.42809 9.36049 9.67087C9.54799 9.77087 9.65632 9.75837 9.77715 9.63753C9.89799 9.5167 10.2647 9.11254 10.398 8.92921C10.5313 8.74587 10.6563 8.78337 10.8146 8.85004C10.973 8.91671 11.8896 9.40421 12.0646 9.5042C12.2396 9.6042 12.373 9.65837 12.4146 9.73754C12.4563 10.0399 12.4054 10.3479 12.2688 10.6209L12.298 10.6084Z" fill="#1A1A1A"/>
</svg>
